{"title":"Padmaavat 2018 720p DesiPre-Rip x264 MP3 Mafiaking M2Tv","magnet":"magnet:?xt=urn:btih:b958143bde85d5427c929350d7c76792c02751d2&dn=Padmaavat+2018+720p+DesiPre-Rip+x264+MP3+Mafiaking+M2Tv&tr=udp%3A%2F%2Ftracker.leechers-paradise.org%3A6969&tr=udp%3A%2F%2Fzer0day.ch%3A1337&tr=udp%3A%2F%2Fopen.demonii.com%3A1337&tr=udp%3A%2F%2Ftracker.coppersurfer.tk%3A6969&tr=udp%3A%2F%2Fexodus.desync.com%3A6969","uploader":"mafiaaking","categoryP":"video","categoryS":"movies","size":"1275437018","seeders":"4","leechers":"70","description":"Padmaavat (2018) 720p - DesiPre-Rip - Hindi - x264 - MP3 - Mafiaking - M2Tv\r\n <a href=\"\nhttp://www.imdb.com/title/tt5935704/\" rel=\"nofollow\" target=\"_NEW\">\nhttp://www.imdb.com/title/tt5935704/</a>\r\n\r\nRatings: 7.3/10\r\n\r\nGenere:      Action, Drama, History \r\n\r\nGeneral\r\nComplete name               : Padmaavat (2018) 720p - DesiPre-Rip - Hindi - x264 - MP3 - Mafiaking - M2Tv.mkv\r\nFormat                      : Matroska\r\nFormat version              : Version 4 / Version 2\r\nFile size                   : 1.18 GiB\r\nDuration                    : 2 h 36 min\r\nOverall bit rate            : 1 081 kb/s\r\nMovie name                  : Padmaavat (2018) 720p - DesiPre-Rip - Hindi - x264 - MP3 - Mafiaking - M2Tv\r\n\r\nVideo\r\nID                          : 1\r\nFormat                      : AVC\r\nCodec ID                    : V_MPEG4/ISO/AVC\r\nDuration                    : 2 h 36 min\r\nBit rate                    : 951 kb/s\r\nWidth                       : 1 280 pixels\r\nHeight                      : 544 pixels\r\nDisplay aspect ratio        : 2.35:1\r\nFrame rate mode             : Constant\r\nFrame rate                  : 25.000 FPS\r\nStream size                 : 1.04 GiB (88%)\r\nTitle                       : Mafiaking\r\nLanguage                    : Hindi\r\nDefault                     : Yes\r\nForced                      : No\r\n\r\nAudio\r\nID                          : 2\r\nFormat                      : MPEG Audio\r\nCodec ID/Hint               : MP3\r\nDuration                    : 2 h 36 min\r\nBit rate mode               : Constant\r\nBit rate                    : 128 kb/s\r\nChannel(s)                  : 2 channels\r\nStream size                 : 143 MiB (12%)\r\nLanguage                    : Hindi\r\nDefault                     : Yes\r\nForced                      : No\r\n\r\nScreens:-\r\n <a href=\"\nhttps://www.lookimg.com/image/obX1U\" rel=\"nofollow\" target=\"_NEW\">\nhttps://www.lookimg.com/image/obX1U</a> <a href=\"\nhttps://www.lookimg.com/image/obDVe\" rel=\"nofollow\" target=\"_NEW\">\nhttps://www.lookimg.com/image/obDVe</a> <a href=\"\nhttps://www.lookimg.com/image/obwkR\" rel=\"nofollow\" target=\"_NEW\">\nhttps://www.lookimg.com/image/obwkR</a> <a href=\"\nhttps://www.lookimg.com/image/obteq\" rel=\"nofollow\" target=\"_NEW\">\nhttps://www.lookimg.com/image/obteq</a> <a href=\"\nhttps://www.lookimg.com/image/obl2n\" rel=\"nofollow\" target=\"_NEW\">\nhttps://www.lookimg.com/image/obl2n</a> <a href=\"\nhttps://www.lookimg.com/image/obCpQ\" rel=\"nofollow\" target=\"_NEW\">\nhttps://www.lookimg.com/image/obCpQ</a> <a href=\"\nhttps://www.lookimg.com/image/obEdh\" rel=\"nofollow\" target=\"_NEW\">\nhttps://www.lookimg.com/image/obEdh</a> <a href=\"\nhttps://www.lookimg.com/image/obbZW\" rel=\"nofollow\" target=\"_NEW\">\nhttps://www.lookimg.com/image/obbZW</a> <a href=\"\nhttps://www.lookimg.com/image/obNtr\" rel=\"nofollow\" target=\"_NEW\">\nhttps://www.lookimg.com/image/obNtr</a> <a href=\"\nhttps://www.lookimg.com/image/obnaj\" rel=\"nofollow\" target=\"_NEW\">\nhttps://www.lookimg.com/image/obnaj</a>","last_updated":"2018-01-26T12:02:00.158Z","parsed":{"xt":"urn:btih:b958143bde85d5427c929350d7c76792c02751d2","dn":"Padmaavat 2018 720p DesiPre-Rip x264 MP3 Mafiaking M2Tv","tr":["udp://exodus.desync.com:6969","udp://open.demonii.com:1337","udp://tracker.coppersurfer.tk:6969","udp://tracker.leechers-paradise.org:6969","udp://zer0day.ch:1337"],"infoHash":"b958143bde85d5427c929350d7c76792c02751d2","infoHashBuffer":{"type":"Buffer","data":[185,88,20,59,222,133,213,66,124,146,147,80,215,199,103,146,192,39,81,210]},"name":"Padmaavat 2018 720p DesiPre-Rip x264 MP3 Mafiaking M2Tv","announce":["udp://exodus.desync.com:6969","udp://open.demonii.com:1337","udp://tracker.coppersurfer.tk:6969","udp://tracker.leechers-paradise.org:6969","udp://zer0day.ch:1337"],"urlList":[]}}